# xmcd
#
# Track frame offsets:
#	150
#	15136
#	30504
#	42188
#	48284
#	58094
#	64473
#	77905
#	87638
#	101960
#	111690
#	123370
#	135952
#	144934
#	153434
#	166556
#	177063
#	185200
#	195296
#	208748
#	219681
#	229652
#	244108
#
# Disc length: 3409 seconds
#
# Revision: 0
# Processed by: cddbd v1.5.2PL0 Copyright (c) Steve Scherf et al.
# Submitted via: EZCDAudioConverter 1.3.4.1
#
DISCID=3f0d4f17
DTITLE=Janko Nilovic - Last Impressions 1/2
DYEAR=1900
DGENRE=
TTITLE0=Aerospatial
TTITLE1=Soul Impression
TTITLE2=Improvisation Pour 2 Voix
TTITLE3=Post Scriptum
TTITLE4=Chorus For Leslie
TTITLE5=Flock
TTITLE6=African Dream
TTITLE7=Samba Dio
TTITLE8=Hommage A Pele
TTITLE9=Week-End A Chelsea
TTITLE10=Funky Village
TTITLE11=Le Vent Dans Les Algues
TTITLE12=To And Fro
TTITLE13=Shadow Of Our Life
TTITLE14=Golf Open
TTITLE15=Atchika Boum
TTITLE16=Para Papaya
TTITLE17=Sunder Fire
TTITLE18=Hand In Hand
TTITLE19=Vocal Intentions
TTITLE20=Blows And Rhythms
TTITLE21=Cross Rolls
TTITLE22=Concerto For A Star
EXTD=
EXTT0=
EXTT1=
EXTT2=
EXTT3=
EXTT4=
EXTT5=
EXTT6=
EXTT7=
EXTT8=
EXTT9=
EXTT10=
EXTT11=
EXTT12=
EXTT13=
EXTT14=
EXTT15=
EXTT16=
EXTT17=
EXTT18=
EXTT19=
EXTT20=
EXTT21=
EXTT22=
PLAYORDER=
